# xmcd
#
# Track frame offsets:
#	150
#	14996
#	36006
#	51230
#	62868
#	77389
#	95341
#
# Disc length: 1328 seconds
# Revision: 0
# Processed by: cddbd v1.5.2PL0 Copyright (c) Steve Scherf et al.
# Submitted via: dBpowerAMP V12.0
#
DISCID=55052e07
DTITLE=Various Artist - Can You Hear Mr Now
DYEAR=2004
DGENRE=Country
TTITLE0=Nitty Gritty Dirt Band - It's A New Day
TTITLE1=Charlie Robison - El Cerrito Place
TTITLE2=Sheryl Crow - No Depression In Heaven
TTITLE3=Cowboy Jack Clement - Ballad Of A Teenage Queen
TTITLE4=Deryl Dodd - Let Me Be
TTITLE5=John Arthur Martinez - It I Didn't Care
TTITLE6=John Carter Cash - Excerpt From The Making Of The Unbroken Circle
EXTD=
EXTT0=
EXTT1=
EXTT2=
EXTT3=
EXTT4=
EXTT5=
EXTT6=
PLAYORDER=
